/* XPM */
static char * batt_4_xpm[] = {
"16 20 5 1",
" 	c None",
".	c #FFFFFF",
"+	c #CCCCCC",
"@	c #CC2288",
"#	c #FF44AA",
"                ",
"    ....        ",
"   ..++..       ",
"   .+  +.       ",
"  .+    +.      ",
" ...    ++.     ",
" ..      +.     ",
" ..      +.     ",
" ..      +.     ",
" ..      +.     ",
" ..      +.     ",
" .. @### +.     ",
" .. @### ..     ",
" .. @### ..     ",
" .. @@## ..     ",
" +. @@@@ ..     ",
" +..    ...     ",
"  +.......      ",
"   +++...       ",
"                "};
