/* XPM */
static char * batt_plug_8_xpm[] = {
"16 20 5 1",
" 	c None",
".	c #FFFFFF",
"+	c #CCCCCC",
"@	c #FF44AA",
"#	c #CC2288",
"                ",
"    ....        ",
"   ..++..       ",
"   .+  +.       ",
"  .+    +.      ",
" ... @@ ++.     ",
" .. #@@@        ",
" .. #@@ +  .    ",
" .. #@@ +  .    ",
" .. #@ +.....   ",
" .. #@ +.....   ",
" .. #@@ +...    ",
" .. #@@@ +.     ",
" .. #@@@ +.     ",
" .. ##@@ +.     ",
" +. #### +.     ",
" +..     +.     ",
"  +....  ++     ",
"   +++.  +      ",
"                "};
