/* XPM */
static char * batt_1_xpm[] = {
"16 20 4 1",
" 	c None",
".	c #FFFFFF",
"+	c #CCCCCC",
"@	c #CC2288",
"                ",
"    ....        ",
"   ..++..       ",
"   .+  +.       ",
"  .+    +.      ",
" ...    ++.     ",
" ..      +.     ",
" ..      +.     ",
" ..      +.     ",
" ..      +.     ",
" ..      +.     ",
" ..      +.     ",
" ..      ..     ",
" ..      ..     ",
" ..      ..     ",
" +. @@@@ ..     ",
" +..    ...     ",
"  +.......      ",
"   +++...       ",
"                "};
