/* XPM */
static char * batt_plug_0_xpm[] = {
"16 20 3 1",
" 	c None",
".	c #FFFFFF",
"+	c #CCCCCC",
"                ",
"    ....        ",
"   ..++..       ",
"   .+  +.       ",
"  .+    +.      ",
" ...    ++.     ",
" ..             ",
" ..     +  .    ",
" ..     +  .    ",
" ..    +.....   ",
" ..    +.....   ",
" ..     +...    ",
" ..      +.     ",
" ..      +.     ",
" ..      +.     ",
" +.      +.     ",
" +..     +.     ",
"  +....  ++     ",
"   +++.  +      ",
"                "};
