/* XPM */
static char * wifi_8_xpm[] = {
"16 20 3 1",
" 	c None",
".	c #FFFFFF",
"+	c #CCCCCC",
"                ",
"                ",
"     ......     ",
"   ...++++...   ",
"  ..++     ...  ",
"  .+  ....  ..  ",
"  +  ..++..  .  ",
"    .+++  ..    ",
"    +      .    ",
"     ..++.      ",
"     .++ ..     ",
"     +          ",
"       ...      ",
"      .++.      ",
"      ++        ",
"                ",
"       +.       ",
"       ++       ",
"                ",
"                "};
