/* XPM */
static char * wifi_1_xpm[] = {
"16 20 3 1",
" 	c None",
".	c #FFFFFF",
"+	c #CCCCCC",
"                ",
"                ",
"                ",
"                ",
"                ",
"                ",
"                ",
"                ",
"                ",
"                ",
"                ",
"                ",
"       ...      ",
"      .++.      ",
"      ++        ",
"                ",
"       +.       ",
"       ++       ",
"                ",
"                "};
